<svg xmlns="http://www.w3.org/2000/svg" width="40" height="40" viewBox="0 0 40 40">
  <defs>
    <linearGradient id="a" x1="50%" x2="50%" y1="0%" y2="98.603%">
      <stop stop-color="#FF6633" offset="0%"/>
      <stop stop-color="#FF0E83" offset="100%"/>
    </linearGradient>
  </defs>
  <g fill="none" fill-rule="evenodd">
    <circle cx="20" cy="20" r="20" fill="url(#a)"/>
    <g fill="#FFFFFF" transform="translate(9.308 10.063)">
      <path fill-opacity=".7" d="M17.8467078,0.524006448 L10.7113423,5.87524034 C10.6908599,5.89060129 10.6498952,5.92132319 10.6498952,5.92132319 L3.3857413,0.570922515 C2.98533013,0.268956085 2.51927853,0.133291947 2.06360813,0.13324735 C1.00495534,0.133113559 0.00151583903,0.865084466 0.00151583903,1.94415399 L0.00151583903,6.00172476 L0,18.0636135 C0,19.1425938 1.00353137,19.8745647 2.06209229,19.8745647 C2.51785456,19.8745647 2.98376835,19.7389006 3.38422546,19.4368449 L10.6498952,14.0395728 C14.2651253,16.7661232 17.845192,19.4368449 17.845192,19.4368449 C18.2456031,19.7388114 18.7117007,19.8745647 19.1673251,19.8745647 C20.2260239,19.8745647 21.2997904,19.1426835 21.2997904,18.063614 L21.2997904,6.00172462 L21.2997904,1.86219839 C21.2997904,0.783218057 20.2274019,0.0863312835 19.168841,0.0863312835 C18.7130787,0.0863312835 18.2471649,0.221995422 17.8467078,0.524006448 Z"/>
      <polygon fill-opacity=".6" points="5.319 9.988 10.65 14.04 15.947 9.987 10.65 5.921"/>
      <polyline fill-opacity=".6" points=".003 5.987 .003 13.989 5.319 9.988 .003 5.987"/>
      <polyline fill-opacity=".6" points="15.947 9.987 21.3 14.04 21.3 5.921 15.947 9.987"/>
      <path d="M17.7498253.593721876L10.6498952 5.92132337 15.9468566 9.98721064 21.2997903 5.92132337 21.2997903 1.86219839C21.2997903.319766162 19.2712389-.674754609 17.7498253.593721876zM3.3930208.539172154C2.06053149-.463688022.00407800862.369052907.00407800862 1.91148514L.00407800862 5.9873189 5.31886037 9.98835034 10.6498956 5.921323 3.3930208.539172154z"/>
    </g>
  </g>
</svg>
