<?xml version="1.0" encoding="UTF-8"?>
<svg width="30px" height="30px" viewBox="0 0 30 30" version="1.1" xmlns="http://www.w3.org/2000/svg" xmlns:xlink="http://www.w3.org/1999/xlink">
    <!-- Generator: Sketch 42 (36781) - http://www.bohemiancoding.com/sketch -->
    <title>translate-icon-bg-yellow</title>
    <desc>Created with Sketch.</desc>
    <defs>
        <ellipse id="path-1" cx="14.999127" cy="15.0597436" rx="14.8646551" ry="14.9295775"></ellipse>
        <path d="M13.9300753,7.37521076 C14.051447,7.0507861 15.1935703,6.24056287 15.1935703,6.24056287 L15.1935703,3.2011485e-08 L3.28092238e-08,4.51193327e-08 L3.28092238e-08,17.5870423 L2.25089931,22.6137365 L7.4767049,22.613737 L7.29507476,21.9651129 C7.29507476,21.9651129 13.8087036,7.69963542 13.9300753,7.37521076 Z" id="path-3"></path>
    </defs>
    <g id="Lyrics" stroke="none" stroke-width="1" fill="none" fill-rule="evenodd">
        <g id="Translation-desktop---one-" transform="translate(-167.000000, -3014.000000)">
            <g id="Translations-footer" transform="translate(0.000000, 2981.000000)">
                <g id="Title" transform="translate(167.000000, 33.000000)">
                    <g id="translate-icon-bg-yellow">
                        <mask id="mask-2" fill="white">
                            <use xlink:href="#path-1"></use>
                        </mask>
                        <use id="Mask" fill="#FFC207" xlink:href="#path-1"></use>
                        <g id="Chinese" mask="url(#mask-2)">
                            <g transform="translate(6.931090, 4.165806)">
                                <mask id="mask-4" fill="white">
                                    <use xlink:href="#path-3"></use>
                                </mask>
                                <g id="Line" stroke="none" fill="none" fill-rule="nonzero"></g>
                                <path d="M6.68500999,4.68403208 L2.52081096,4.68403208 C1.92737038,4.68403208 1.44629173,5.16511072 1.44629173,5.75855131 C1.44629173,6.35199189 1.92737038,6.83307054 2.52081096,6.83307054 L6.45771909,6.83307054 C5.88461655,10.5286363 4.43350793,12.3889498 1.15160118,14.4004803 C0.645635693,14.7105942 0.486866639,15.3721573 0.796980574,15.8781228 C1.10709451,16.3840883 1.76865759,16.5428573 2.27462308,16.2327434 C5.45822798,14.2814636 7.19684691,12.3586794 8.0912881,9.36350487 C8.78834971,10.8155815 9.82696857,12.1151224 11.3474151,13.5348404 L12.8140936,11.9641016 C10.9794444,10.2509966 9.97553119,8.79538453 9.4516172,6.83307054 L13.1450192,6.83307054 C13.7384598,6.83307054 14.2195384,6.35199189 14.2195384,5.75855131 C14.2195384,5.16511072 13.7384598,4.68403208 13.1450192,4.68403208 L9.07578277,4.68403208 C8.97310069,3.68107914 8.93483737,2.54342227 8.93483737,1.21407324 L8.93456914,1.21407324 C8.93474858,1.14106716 8.93483737,1.06767165 8.93483737,0.9938833 C8.93483737,0.400442715 8.45375873,-0.080635931 7.86031814,-0.080635931 C7.26687756,-0.080635931 6.78579891,0.400442715 6.78579891,0.9938833 C6.78579891,2.37679839 6.75696492,3.59691906 6.68500999,4.68403208 Z" id="Combined-Shape" stroke="none" fill="#FFF3CE" fill-rule="nonzero" mask="url(#mask-4)"></path>
                            </g>
                        </g>
                        <g id="A" mask="url(#mask-2)" stroke="#FFF3CE" stroke-width="2.14903846">
                            <g transform="translate(18.685897, 10.137637)">
                                <polyline id="Stroke-1" stroke-linecap="round" stroke-linejoin="round" points="11.7293875 13.4558149 6.09369837 0.0570523139 5.53097355 0.0570523139 0.0624136755 13.1721529"></polyline>
                                <path d="M8.91875476,8.10462777 L1.64047185,8.10462777" id="Stroke-2"></path>
                            </g>
                        </g>
                    </g>
                </g>
            </g>
        </g>
    </g>
</svg>