<?xml version="1.0" encoding="UTF-8"?>
<svg width="176px" height="40px" viewBox="0 0 176 40" version="1.1" xmlns="http://www.w3.org/2000/svg" xmlns:xlink="http://www.w3.org/1999/xlink">
    <!-- Generator: sketchtool 41.2 (35397) - http://www.bohemiancoding.com/sketch -->
    <title>356360CD-DE6D-4970-A996-CB122E0F8155</title>
    <desc>Created with sketchtool.</desc>
    <defs>
        <linearGradient x1="50%" y1="0%" x2="50%" y2="98.6029177%" id="linearGradient-1">
            <stop stop-color="#FF6633" offset="0%"></stop>
            <stop stop-color="#FF0E83" offset="100%"></stop>
        </linearGradient>
    </defs>
    <g id="Developer" stroke="none" stroke-width="1" fill="none" fill-rule="evenodd">
        <g id="Developer-Home" transform="translate(-165.000000, -2688.000000)">
            <g id="Footer" transform="translate(0.000000, 2636.000000)">
                <g id="mxm_logo" transform="translate(165.000000, 52.000000)">
                    <g id="icon">
                        <circle id="bg" fill="url(#linearGradient-1)" cx="20" cy="20" r="20"></circle>
                        <g id="butterfly" transform="translate(9.308176, 10.062542)" fill="#FFFFFF">
                            <path d="M17.8467078,0.524006448 L10.7113423,5.87524034 C10.6908599,5.89060129 10.6498952,5.92132319 10.6498952,5.92132319 L3.3857413,0.570922515 C2.98533013,0.268956085 2.51927853,0.133291947 2.06360813,0.13324735 C1.00495534,0.133113559 0.00151583903,0.865084466 0.00151583903,1.94415399 L0.00151583903,6.00172476 L0,18.0636135 C0,19.1425938 1.00353137,19.8745647 2.06209229,19.8745647 C2.51785456,19.8745647 2.98376835,19.7389006 3.38422546,19.4368449 L10.6498952,14.0395728 C14.2651253,16.7661232 17.845192,19.4368449 17.845192,19.4368449 C18.2456031,19.7388114 18.7117007,19.8745647 19.1673251,19.8745647 C20.2260239,19.8745647 21.2997904,19.1426835 21.2997904,18.063614 L21.2997904,6.00172462 L21.2997904,1.86219839 C21.2997904,0.783218057 20.2274019,0.0863312835 19.168841,0.0863312835 C18.7130787,0.0863312835 18.2471649,0.221995422 17.8467078,0.524006448 Z" id="Imported-Layers" fill-opacity="0.699999988"></path>
                            <polygon id="Fill-3-Copy" fill-opacity="0.599999964" points="5.31886037 9.98835034 10.6498951 14.039573 15.9468566 9.98724863 10.6498951 5.92132319"></polygon>
                            <polyline id="Fill-4-Copy" fill-opacity="0.599999964" points="0.00258796701 5.9873189 0.00258796701 13.9894198 5.31886037 9.98835034 0.00258796701 5.9873189"></polyline>
                            <polyline id="Fill-5-Copy" fill-opacity="0.599999964" points="15.9468566 9.98724863 21.2997903 14.0395728 21.2997903 5.92132319 15.9468566 9.98724863"></polyline>
                            <path d="M17.7498253,0.593721876 L10.6498952,5.92132337 L15.9468566,9.98721064 L21.2997903,5.92132337 L21.2997903,1.86219839 C21.2997903,0.319766162 19.2712389,-0.674754609 17.7498253,0.593721876 Z" id="Fill-6-Copy"></path>
                            <path d="M3.3930208,0.539172154 C2.06053149,-0.463688022 0.00407800862,0.369052907 0.00407800862,1.91148514 L0.00407800862,5.9873189 L5.31886037,9.98835034 L10.6498956,5.921323 L3.3930208,0.539172154 Z" id="Fill-7-Copy"></path>
                        </g>
                    </g>
                    <path d="M54.9596497,19.3449519 L54.9596497,25.9340659 L57.5673935,25.9340659 L57.5673935,19.3771463 C57.5673935,17.606456 58.5332246,16.4152644 60.1536745,16.4152644 C61.9565591,16.4152644 62.6648352,17.6493819 62.6648352,19.3127576 L62.6648352,25.9340659 L65.2833104,25.9340659 L65.2833104,18.6903331 C65.2833104,16.028932 63.9848043,13.9362981 61.0014595,13.9362981 C59.2093063,13.9362981 58.0610405,14.6016484 56.9235062,15.8572287 C56.2581559,14.6875 55.0884272,13.9362981 53.3070055,13.9362981 C52.3733688,13.9362981 50.9246223,14.2797047 49.7978194,15.7821085 L49.7978194,14.2045845 L47.2437328,14.2045845 L47.2437328,25.9340659 L49.8622081,25.9340659 L49.8622081,19.3986092 C49.8622081,17.627919 50.8280391,16.4152644 52.448489,16.4152644 C54.2513736,16.4152644 54.9596497,17.6815762 54.9596497,19.3449519 L54.9596497,19.3449519 Z M70.4833448,20.7722356 L70.4833448,14.2045845 L67.8648695,14.2045845 L67.8648695,21.4161229 C67.8648695,24.077524 69.3243475,26.1808894 72.2647665,26.1808894 C73.1876717,26.1808894 74.7222699,25.8696772 75.8490728,24.3565419 L75.8490728,25.9340659 L78.4031593,25.9340659 L78.4031593,14.2045845 L75.7846841,14.2045845 L75.7846841,20.7293098 C75.7846841,22.5 74.7330014,23.7019231 73.0696257,23.7019231 C71.2667411,23.7019231 70.4833448,22.4356113 70.4833448,20.7722356 L70.4833448,20.7722356 Z M85.0734032,26.1379636 C87.9923592,26.1379636 89.3552541,24.2921532 89.3552541,22.4785371 C89.3552541,20.8044299 88.174794,19.4093407 86.0285027,18.947888 L84.4187843,18.6044815 C83.7641655,18.4649725 83.2383242,18.0786401 83.2383242,17.3918269 C83.2383242,16.5976992 84.0217205,16.0611264 84.8480426,16.0611264 C86.2324004,16.0611264 86.8011676,16.9411058 86.9728709,17.7030391 L89.1835508,17.0806147 C88.9796532,15.9538118 87.9279705,13.9470295 84.8480426,13.9470295 C82.4549279,13.9470295 80.7057005,15.674794 80.7057005,17.6171875 C80.7057005,19.1517857 81.6715316,20.4824863 83.8070913,20.9868647 L85.3094952,21.3410027 C86.2967891,21.5770948 86.7045845,21.9956216 86.7045845,22.6287775 C86.7045845,23.4443681 86.1143544,24.0024038 85.0304773,24.0024038 C83.6890453,24.0024038 82.8949176,23.1331559 82.6802885,22.1351305 L80.4374141,22.7253606 C80.5876545,24.0345982 81.8861607,26.1379636 85.0734032,26.1379636 L85.0734032,26.1379636 Z M91.0568338,10.3949176 C91.0568338,9.43981799 91.8294986,8.6564217 92.7738668,8.6564217 C93.7289663,8.6564217 94.5016312,9.43981799 94.5016312,10.3949176 C94.5016312,11.3500172 93.7289663,12.1119505 92.7738668,12.1119505 C91.8294986,12.1119505 91.0568338,11.3500172 91.0568338,10.3949176 L91.0568338,10.3949176 Z M91.4753606,25.9340659 L91.4753606,14.2045845 L94.0938359,14.2045845 L94.0938359,25.9340659 L91.4753606,25.9340659 Z M98.4782795,25.9340659 L101.42943,21.8453812 L104.391312,25.9340659 L107.39612,25.9340659 L102.953297,19.9566449 L107.256611,14.2045845 L104.30546,14.2045845 L101.461624,18.0893716 L98.6499828,14.2045845 L95.6559066,14.2045845 L99.948489,19.9995707 L95.4949348,25.9340659 L98.4782795,25.9340659 Z M116.523867,19.3449519 L116.523867,25.9340659 L119.131611,25.9340659 L119.131611,19.3771463 C119.131611,17.606456 120.097442,16.4152644 121.717891,16.4152644 C123.520776,16.4152644 124.229052,17.6493819 124.229052,19.3127576 L124.229052,25.9340659 L126.847527,25.9340659 L126.847527,18.6903331 C126.847527,16.028932 125.549021,13.9362981 122.565677,13.9362981 C120.773523,13.9362981 119.625258,14.6016484 118.487723,15.8572287 C117.822373,14.6875 116.652644,13.9362981 114.871223,13.9362981 C113.937586,13.9362981 112.488839,14.2797047 111.362036,15.7821085 L111.362036,14.2045845 L108.80795,14.2045845 L108.80795,25.9340659 L111.426425,25.9340659 L111.426425,19.3986092 C111.426425,17.627919 112.392256,16.4152644 114.012706,16.4152644 C115.815591,16.4152644 116.523867,17.6815762 116.523867,19.3449519 L116.523867,19.3449519 Z M128.763736,20.053228 C128.763736,23.2082761 131.14612,26.1165007 134.53726,26.1165007 C135.470896,26.1165007 137.466947,25.6550481 138.432778,24.1526442 L138.432778,25.9340659 L141.019059,25.9340659 L141.019059,14.2045845 L138.432778,14.2045845 L138.432778,15.910886 C137.466947,14.4621394 135.631868,13.9684924 134.601648,13.9684924 C130.93149,13.9684924 128.763736,17.0913462 128.763736,20.053228 L128.763736,20.053228 Z M138.44351,20.053228 C138.44351,22.0600103 137.04842,23.7448489 134.923592,23.7448489 C132.809495,23.7448489 131.403674,22.0707418 131.403674,20.053228 C131.403674,18.0142514 132.798764,16.3401442 134.923592,16.3401442 C137.04842,16.3401442 138.44351,18.0142514 138.44351,20.053228 L138.44351,20.053228 Z M150.490213,16.5547734 L150.490213,14.2045845 L147.506868,14.2045845 L147.506868,10.5666209 L144.899124,10.5666209 L144.899124,14.2045845 L142.624056,14.2045845 L142.624056,16.5547734 L144.899124,16.5547734 L144.899124,22.2961023 C144.899124,25.1506696 146.19763,26.0413805 148.504894,26.0413805 C148.826837,26.0413805 149.663891,26.0199176 150.382898,25.8052885 L150.382898,23.5838771 C149.87852,23.6482658 149.556576,23.6697287 149.320484,23.6697287 C148.011247,23.6697287 147.506868,23.1653503 147.506868,22.1565934 L147.506868,16.5547734 L150.490213,16.5547734 Z M157.686298,26.1379636 C160.884272,26.1379636 162.697888,24.077524 163.223729,22.2961023 L160.830615,21.5234375 C160.487208,22.4248798 159.746738,23.7555804 157.739955,23.7555804 C155.743905,23.7555804 154.262964,22.1887878 154.262964,19.9995707 C154.262964,17.7781593 155.808293,16.3294128 157.718492,16.3294128 C159.660886,16.3294128 160.519402,17.606456 160.787689,18.5186298 L163.159341,17.745965 C162.665694,15.7606456 160.637448,13.957761 157.729224,13.957761 C154.230769,13.957761 151.5801,16.6942823 151.5801,20.0424966 C151.5801,23.4980254 154.230769,26.1379636 157.686298,26.1379636 L157.686298,26.1379636 Z M173.016827,19.3664148 L173.016827,25.9340659 L175.635302,25.9340659 L175.635302,18.711796 C175.635302,16.0396635 174.21875,13.957761 171.235405,13.957761 C170.3125,13.957761 168.842291,14.2582418 167.715488,15.6855254 L167.715488,8.03399725 L165.097012,8.03399725 L165.097012,25.9340659 L167.715488,25.9340659 L167.715488,19.3986092 C167.715488,17.627919 168.76717,16.4367273 170.430546,16.4367273 C172.233431,16.4367273 173.016827,17.6923077 173.016827,19.3664148 L173.016827,19.3664148 Z" id="musixmatch" fill="#2C3E50"></path>
                </g>
            </g>
        </g>
    </g>
</svg>